<?xml version="1.0" encoding="UTF-8"?>
<svg xmlns="http://www.w3.org/2000/svg" version="1.1" viewBox="0 0 184.8 95.8">
  <defs>
    <style>
      .cls-1 {
        fill: #6366f1;
      }
    </style>
  </defs>
  <!-- Generator: Adobe Illustrator 28.6.0, SVG Export Plug-In . SVG Version: 1.2.0 Build 709)  -->
  <g>
    <g id="Layer_1">
      <g>
        <path class="cls-1" d="M16.5,44l2.5-5.7c2.4,1.6,5.8,2.7,9,2.7s4.4-.9,4.4-2.2c0-4.3-15.5-1.2-15.5-11.3s4-8.8,12.1-8.8,7.2.8,9.9,2.4l-2.4,5.7c-2.6-1.4-5.2-2.1-7.6-2.1s-4.4,1.1-4.4,2.5c0,4.2,15.5,1.1,15.5,11.1s-4,8.8-12.1,8.8-8.9-1.2-11.5-3Z"/>
        <path class="cls-1" d="M65.4,25.4v21.1h-7v-2.3c-1.6,1.8-3.9,2.6-6.3,2.6-5.2,0-9-3-9-9.7v-11.8h7.4v10.6c0,3.3,1.3,4.6,3.5,4.6s4-1.4,4-5v-10.2h7.4Z"/>
        <path class="cls-1" d="M84,25v6.7c-.7,0-1.1-.1-1.7-.1-3,0-5.1,1.5-5.1,5.2v9.7h-7.4v-21.1h7v2.5c1.5-1.9,4-2.9,7.1-2.9Z"/>
        <path class="cls-1" d="M95.5,26.1h5v5.5h-4.8v14.8h-7.4v-14.8h-3.1v-5.5h3.1v-.5c0-5.1,3.2-8.4,8.8-8.4s3.7.4,4.9,1.1l-1.8,5.2c-.6-.4-1.4-.6-2.2-.6-1.6,0-2.5.9-2.5,2.8v.5Z"/>
        <path class="cls-1" d="M122.6,34.8v11.7h-6.9v-2.7c-1.1,2-3.2,3.1-6.2,3.1-5.1,0-7.9-2.8-7.9-6.5s2.8-6.3,9.4-6.3h4.2c-.1-2.1-1.6-3.3-4.5-3.3s-4.3.7-5.7,1.8l-2.5-5c2.4-1.6,6-2.5,9.3-2.5,6.9,0,10.8,3,10.8,9.7ZM115.2,39.7v-1.8h-3.2c-2.4,0-3.2.9-3.2,2.1s1,2.1,2.8,2.1,3.1-.8,3.7-2.5Z"/>
        <path class="cls-1" d="M125.5,35.9c0-6.3,5-10.9,12.1-10.9s8.4,2.1,9.9,5.8l-5.7,2.9c-1-2-2.5-2.8-4.2-2.8-2.6,0-4.6,1.8-4.6,5s2,5.1,4.6,5.1,3.2-.9,4.2-2.8l5.7,2.9c-1.4,3.7-5.1,5.8-9.9,5.8-7.1,0-12.1-4.5-12.1-10.9Z"/>
        <path class="cls-1" d="M171.4,37.8h-15.3c.6,2.1,2.5,3.4,5.2,3.4s3.4-.6,4.9-1.8l3.9,4c-2,2.3-5,3.4-9,3.4-7.5,0-12.4-4.6-12.4-10.9s4.9-10.9,11.6-10.9,11.3,4,11.3,10.9,0,1.2-.1,1.8ZM156,33.9h8.6c-.4-2.2-2-3.6-4.3-3.6s-3.9,1.4-4.3,3.6Z"/>
        <path class="cls-1" d="M57.7,76.1l2.3-5.3c2.2,1.5,5.4,2.5,8.3,2.5s4.1-.8,4.1-2.1c0-4-14.3-1.1-14.3-10.5s3.7-8.2,11.2-8.2,6.7.8,9.2,2.2l-2.2,5.3c-2.4-1.3-4.8-1.9-7-1.9s-4.1,1-4.1,2.3c0,3.9,14.3,1,14.3,10.3s-3.7,8.1-11.2,8.1-8.3-1.1-10.6-2.8Z"/>
        <path class="cls-1" d="M104.4,68.6c0,6.2-4.3,10.1-9.6,10.1s-4.1-.7-5.4-2.1v8.7h-6.9v-26.5h6.5v1.9c1.3-1.6,3.2-2.3,5.8-2.3,5.3,0,9.6,3.9,9.6,10.1ZM97.5,68.6c0-3-1.8-4.7-4.1-4.7s-4.1,1.7-4.1,4.7,1.8,4.7,4.1,4.7,4.1-1.7,4.1-4.7Z"/>
        <path class="cls-1" d="M125.6,67.5v10.9h-6.4v-2.5c-1,1.9-2.9,2.8-5.8,2.8-4.7,0-7.3-2.6-7.3-6s2.6-5.8,8.7-5.8h3.9c-.1-2-1.4-3.1-4.1-3.1s-4,.6-5.3,1.7l-2.3-4.7c2.2-1.5,5.6-2.3,8.6-2.3,6.3,0,10,2.8,10,9ZM118.7,72.1v-1.7h-3c-2.2,0-3,.8-3,2s.9,2,2.6,2,2.8-.7,3.4-2.3Z"/>
        <path class="cls-1" d="M128.3,68.6c0-5.9,4.7-10.1,11.2-10.1s7.8,2,9.2,5.4l-5.3,2.7c-.9-1.8-2.3-2.6-3.9-2.6-2.4,0-4.3,1.7-4.3,4.6s1.9,4.7,4.3,4.7,3-.8,3.9-2.6l5.3,2.7c-1.3,3.4-4.7,5.4-9.2,5.4-6.6,0-11.2-4.2-11.2-10.1Z"/>
        <path class="cls-1" d="M170.8,70.4h-14.2c.6,2,2.3,3.1,4.8,3.1s3.2-.5,4.5-1.7l3.6,3.7c-1.9,2.1-4.6,3.2-8.3,3.2-7,0-11.5-4.3-11.5-10.1s4.6-10.1,10.7-10.1,10.5,3.7,10.5,10.1,0,1.2-.1,1.7ZM156.4,66.8h8c-.4-2.1-1.9-3.4-4-3.4s-3.6,1.3-4,3.4Z"/>
      </g>
      <g>
        <path class="cls-1" d="M25.6,66.1v5.4h-3.2v-1.3c-.5.9-1.5,1.4-2.9,1.4-2.3,0-3.6-1.3-3.6-3s1.3-2.9,4.3-2.9h1.9c0-1-.7-1.6-2.1-1.6s-2,.3-2.7.8l-1.2-2.3c1.1-.7,2.8-1.1,4.3-1.1,3.2,0,5,1.4,5,4.5ZM22.2,68.4v-.8h-1.5c-1.1,0-1.5.4-1.5,1s.5,1,1.3,1,1.4-.4,1.7-1.1Z"/>
        <path class="cls-1" d="M38.1,65.9v5.6h-3.4v-5c0-1.4-.6-2-1.6-2s-1.9.7-1.9,2.3v4.7h-3.4v-9.8h3.3v1.1c.8-.8,1.9-1.2,3.1-1.2,2.3,0,4,1.3,4,4.3Z"/>
        <path class="cls-1" d="M50.6,58.1v13.4h-3.3v-1c-.6.8-1.6,1.1-2.9,1.1-2.7,0-4.8-1.9-4.8-5.1s2.1-5,4.8-5,2.1.3,2.7,1v-4.5h3.4ZM47.2,66.6c0-1.5-.9-2.3-2-2.3s-2.1.8-2.1,2.3.9,2.3,2.1,2.3,2-.8,2-2.3Z"/>
      </g>
    </g>
  </g>
</svg>