<?xml version="1.0" encoding="UTF-8"?>
<svg xmlns="http://www.w3.org/2000/svg" version="1.1" viewBox="0 0 275 100">
  <defs>
    <style>
      .cls-1 {
        fill: none;
      }

      .cls-2 {
        fill: #6366f1;
      }
    </style>
  </defs>
  <!-- Generator: Adobe Illustrator 28.6.0, SVG Export Plug-In . SVG Version: 1.2.0 Build 709)  -->
  <g>
    <g id="Layer_1">
      <g>
        <polygon class="cls-1" points="54.9 47.5 85.2 37.1 54.9 26.9 24.7 37.1 54.9 47.5"/>
        <path class="cls-2" d="M95.4,37.1s0,0,0,0c0-.1,0-.2,0-.3-.1-.7-.4-1.3-1-1.7-.3-.2-.6-.3-1-.4l-37.7-12.8c-.5-.2-1.1-.2-1.6,0l-34.7,11.8v-7l35.5-12,37.2,12.6c1.3.4,2.7-.3,3.2-1.6.4-1.3-.3-2.7-1.6-3.2l-38-12.9c-.5-.2-1.1-.2-1.6,0l-38,12.9c-1,.3-1.7,1.3-1.7,2.4v12.4c0,0,0,.2,0,.3v24.9c0,1.1.7,2,1.7,2.4l38,13s0,0,0,0c0,0,.2,0,.3,0,0,0,0,0,.1,0,.1,0,.3,0,.4,0s.3,0,.4,0c0,0,0,0,.1,0,0,0,.2,0,.3,0,0,0,0,0,0,0l34.7-11.9v7.5l-35.5,12.2-37.2-12.9c-1.3-.5-2.7.2-3.2,1.5-.5,1.3.2,2.7,1.5,3.2l38,13.2c.3,0,.5.1.8.1s.5,0,.8-.1l38-13c1-.3,1.7-1.3,1.7-2.4v-12.5c0,0,0-.2,0-.3v-25.3ZM19.4,40.6l33,11.3v20l-33-11.3v-20ZM57.4,51.9l33-11.3v20l-33,11.3v-20ZM54.9,26.9l30.2,10.3-30.2,10.4-30.2-10.4,30.2-10.3Z"/>
      </g>
      <g>
        <path class="cls-2" d="M109,39.7l2.3-5.3c2.2,1.5,5.4,2.5,8.3,2.5s4.1-.8,4.1-2.1c0-4-14.3-1.1-14.3-10.4s3.7-8.2,11.2-8.2,6.7.8,9.1,2.2l-2.2,5.3c-2.4-1.3-4.8-1.9-7-1.9s-4.1,1-4.1,2.3c0,3.9,14.3,1,14.3,10.3s-3.7,8.1-11.2,8.1-8.2-1.1-10.6-2.8Z"/>
        <path class="cls-2" d="M153.2,22.5v19.5h-6.5v-2.1c-1.5,1.6-3.6,2.4-5.8,2.4-4.8,0-8.3-2.7-8.3-8.9v-10.9h6.8v9.8c0,3,1.2,4.2,3.2,4.2s3.7-1.3,3.7-4.6v-9.4h6.8Z"/>
        <path class="cls-2" d="M170.4,22.2v6.2c-.6,0-1-.1-1.5-.1-2.8,0-4.7,1.4-4.7,4.8v9h-6.8v-19.5h6.5v2.3c1.4-1.8,3.7-2.7,6.6-2.7Z"/>
        <path class="cls-2" d="M181.1,23.2h4.6v5.1h-4.5v13.7h-6.8v-13.7h-2.8v-5.1h2.8v-.5c0-4.7,2.9-7.7,8.1-7.7s3.4.3,4.5,1l-1.7,4.8c-.6-.3-1.3-.6-2.1-.6-1.4,0-2.3.8-2.3,2.6v.4Z"/>
        <path class="cls-2" d="M206.1,31.2v10.8h-6.4v-2.5c-1,1.9-2.9,2.8-5.8,2.8-4.7,0-7.3-2.6-7.3-6s2.6-5.8,8.7-5.8h3.9c-.1-2-1.4-3.1-4.1-3.1s-4,.6-5.3,1.7l-2.3-4.6c2.2-1.5,5.5-2.3,8.6-2.3,6.3,0,10,2.8,10,9ZM199.3,35.7v-1.7h-3c-2.2,0-3,.8-3,2s.9,2,2.6,2,2.8-.7,3.4-2.3Z"/>
        <path class="cls-2" d="M207.8,32.2c0-5.9,4.6-10,11.2-10s7.8,2,9.1,5.4l-5.3,2.7c-.9-1.8-2.3-2.6-3.9-2.6-2.4,0-4.2,1.7-4.2,4.6s1.9,4.7,4.2,4.7,3-.8,3.9-2.6l5.3,2.7c-1.3,3.4-4.7,5.4-9.1,5.4-6.6,0-11.2-4.2-11.2-10.1Z"/>
        <path class="cls-2" d="M250.2,34h-14.2c.6,2,2.3,3.1,4.8,3.1s3.2-.5,4.5-1.7l3.6,3.7c-1.9,2.1-4.6,3.2-8.3,3.2-6.9,0-11.4-4.3-11.4-10.1s4.6-10,10.7-10,10.4,3.7,10.4,10.1,0,1.2-.1,1.7ZM235.9,30.4h8c-.4-2.1-1.9-3.3-4-3.3s-3.6,1.3-4,3.3Z"/>
        <path class="cls-2" d="M150.9,75.7l2.3-5.3c2.2,1.5,5.4,2.5,8.3,2.5s4.1-.8,4.1-2.1c0-4-14.3-1.1-14.3-10.4s3.7-8.2,11.2-8.2,6.7.8,9.1,2.2l-2.2,5.3c-2.4-1.3-4.8-1.9-7-1.9s-4.1,1-4.1,2.3c0,3.9,14.3,1,14.3,10.3s-3.7,8.1-11.2,8.1-8.2-1.1-10.6-2.8Z"/>
        <path class="cls-2" d="M196.6,68.2c0,6.2-4.3,10.1-9.6,10.1s-4.1-.7-5.4-2.1v8.7h-6.8v-26.5h6.5v1.9c1.3-1.5,3.2-2.3,5.8-2.3,5.3,0,9.6,3.9,9.6,10.1ZM189.7,68.2c0-3-1.8-4.6-4.1-4.6s-4.1,1.7-4.1,4.6,1.8,4.6,4.1,4.6,4.1-1.7,4.1-4.6Z"/>
        <path class="cls-2" d="M216.7,67.2v10.8h-6.4v-2.5c-1,1.9-2.9,2.8-5.8,2.8-4.7,0-7.3-2.6-7.3-6s2.6-5.8,8.7-5.8h3.9c-.1-2-1.4-3.1-4.1-3.1s-4,.6-5.3,1.7l-2.3-4.6c2.2-1.5,5.5-2.3,8.6-2.3,6.3,0,10,2.8,10,9ZM209.8,71.7v-1.7h-3c-2.2,0-3,.8-3,2s.9,2,2.6,2,2.8-.7,3.4-2.3Z"/>
        <path class="cls-2" d="M218.4,68.2c0-5.9,4.6-10,11.2-10s7.8,2,9.1,5.4l-5.3,2.7c-.9-1.8-2.3-2.6-3.9-2.6-2.4,0-4.2,1.7-4.2,4.6s1.9,4.7,4.2,4.7,3-.8,3.9-2.6l5.3,2.7c-1.3,3.4-4.7,5.4-9.1,5.4-6.6,0-11.2-4.2-11.2-10.1Z"/>
        <path class="cls-2" d="M260.8,70h-14.2c.6,2,2.3,3.1,4.8,3.1s3.2-.5,4.5-1.7l3.6,3.7c-1.9,2.1-4.6,3.2-8.3,3.2-6.9,0-11.4-4.3-11.4-10.1s4.6-10,10.7-10,10.4,3.7,10.4,10.1,0,1.2-.1,1.7ZM246.5,66.4h8c-.4-2.1-1.9-3.3-4-3.3s-3.6,1.3-4,3.3Z"/>
      </g>
      <g>
        <path class="cls-2" d="M121.9,65.7v5.4h-3.2v-1.3c-.5.9-1.5,1.4-2.9,1.4-2.3,0-3.6-1.3-3.6-3s1.3-2.9,4.3-2.9h1.9c0-1-.7-1.5-2.1-1.5s-2,.3-2.6.8l-1.2-2.3c1.1-.7,2.8-1.1,4.3-1.1,3.2,0,5,1.4,5,4.5ZM118.4,68v-.8h-1.5c-1.1,0-1.5.4-1.5,1s.5,1,1.3,1,1.4-.4,1.7-1.1Z"/>
        <path class="cls-2" d="M133.3,65.6v5.6h-3.4v-5c0-1.4-.6-2-1.6-2s-1.9.7-1.9,2.3v4.7h-3.4v-9.8h3.3v1.1c.8-.8,1.9-1.2,3.1-1.2,2.3,0,4,1.3,4,4.3Z"/>
        <path class="cls-2" d="M144.8,57.8v13.4h-3.3v-1c-.6.8-1.6,1.1-2.9,1.1-2.7,0-4.8-1.9-4.8-5.1s2.1-5,4.8-5,2.1.3,2.7,1v-4.4h3.4ZM141.4,66.2c0-1.5-.9-2.3-2-2.3s-2.1.8-2.1,2.3.9,2.3,2.1,2.3,2-.8,2-2.3Z"/>
      </g>
    </g>
  </g>
</svg>